<?xml version="1.0" encoding="UTF-8"?>
<svg xmlns="http://www.w3.org/2000/svg" viewBox="0 0 1122 1122">
  <defs>
    <style>
      .cls-1 {
        fill: #ffc7ce;
      }

      .cls-1, .cls-2, .cls-3, .cls-4, .cls-5, .cls-6 {
        stroke-width: 0px;
      }

      .cls-7, .cls-8, .cls-9, .cls-10 {
        isolation: isolate;
      }

      .cls-8, .cls-3 {
        fill: #f5bb4c;
      }

      .cls-8, .cls-9, .cls-10 {
        font-family: BurgerRegular, Burger;
        font-size: 120.37px;
      }

      .cls-2 {
        fill: #f7d7d0;
      }

      .cls-4, .cls-9 {
        fill: #e05f55;
      }

      .cls-10, .cls-6 {
        fill: #19a2a5;
      }

      .cls-5 {
        fill: #a5d8db;
      }

      .cls-11 {
        opacity: .25;
      }
    </style>
  </defs>
  <g id="Object" class="cls-11">
    <g>
      <path class="cls-3" d="M188.87,359.45c-3.9,0-7.06-2.89-7.06-6.46s3.16-6.46,7.06-6.46,7.06,2.89,7.06,6.46-3.16,6.46-7.06,6.46Z"/>
      <ellipse class="cls-5" cx="248.34" cy="736.17" rx="18.8" ry="17.18"/>
      <ellipse class="cls-5" cx="461.12" cy="954.39" rx="18.8" ry="17.18"/>
      <ellipse class="cls-2" cx="602.76" cy="714.71" rx="22.43" ry="20.5"/>
      <ellipse class="cls-6" cx="987.74" cy="699.31" rx="10.03" ry="9.17"/>
      <ellipse class="cls-6" cx="98.39" cy="390.44" rx="22.43" ry="20.5"/>
      <ellipse class="cls-4" cx="493.32" cy="186.67" rx="16.72" ry="15.29"/>
      <ellipse class="cls-3" cx="79.58" cy="632.65" rx="22.43" ry="20.5"/>
      <ellipse class="cls-6" cx="283" cy="562.25" rx="16.65" ry="15.22"/>
      <ellipse class="cls-6" cx="687.82" cy="170.05" rx="13.82" ry="12.63"/>
      <ellipse class="cls-3" cx="790.32" cy="108.83" rx="13.05" ry="11.93"/>
      <path class="cls-4" d="M1071.83,567.81c-3.36,3.07-8.81,3.07-12.17,0s-3.36-8.05,0-11.13,8.81-3.07,12.17,0,3.36,8.05,0,11.13Z"/>
      <path class="cls-1" d="M155.55,546.93c-4.51,4.12-11.82,4.12-16.33,0-4.51-4.12-4.51-10.8,0-14.92s11.82-4.12,16.33,0,4.51,10.8,0,14.92Z"/>
      <path class="cls-6" d="M727.1,652.63c-4.51,4.12-11.82,4.12-16.33,0s-4.51-10.8,0-14.92,11.82-4.12,16.33,0,4.51,10.8,0,14.92Z"/>
      <path class="cls-1" d="M867.12,304.04c-3.36,3.07-8.81,3.07-12.17,0s-3.36-8.05,0-11.13,8.81-3.07,12.17,0,3.36,8.05,0,11.13Z"/>
      <path class="cls-3" d="M463.41,46.03c-5.01,4.58-13.14,4.58-18.15,0-5.01-4.58-5.01-12.01,0-16.59,5.01-4.58,13.14-4.58,18.15,0,5.01,4.58,5.01,12.01,0,16.59Z"/>
      <path class="cls-2" d="M170.71,711.62c-4.51,4.12-11.82,4.12-16.33,0s-4.51-10.8,0-14.92,11.82-4.12,16.33,0,4.51,10.8,0,14.92Z"/>
      <path class="cls-3" d="M857.65,637.27c-4.51,4.12-11.82,4.12-16.33,0s-4.51-10.8,0-14.92,11.82-4.12,16.33,0,4.51,10.8,0,14.92Z"/>
      <ellipse class="cls-6" cx="103.84" cy="84.25" rx="8.92" ry="8.15"/>
      <ellipse class="cls-5" cx="779.01" cy="562.25" rx="18.58" ry="16.98"/>
      <path class="cls-2" d="M983.07,441.35c-5.13-8.88-2.7-19.89,5.42-24.58s18.86-1.29,23.99,7.6c5.13,8.88,2.7,19.89-5.42,24.58s-18.86,1.29-23.99-7.6Z"/>
      <ellipse class="cls-2" cx="286.43" cy="406.1" rx="16" ry="14.63"/>
      <ellipse class="cls-4" cx="72.08" cy="874.09" rx="11.93" ry="10.9"/>
      <ellipse class="cls-2" cx="364.63" cy="874.09" rx="11.87" ry="10.85"/>
      <ellipse class="cls-1" cx="940.52" cy="72.63" rx="8.36" ry="7.65"/>
      <ellipse class="cls-1" cx="137.51" cy="793.01" rx="11.87" ry="10.85"/>
      <ellipse class="cls-3" cx="701.06" cy="473.73" rx="10.97" ry="10.02"/>
      <ellipse class="cls-5" cx="58.59" cy="201.57" rx="10.93" ry="9.99"/>
      <ellipse class="cls-1" cx="730.81" cy="402.57" rx="11.87" ry="10.85"/>
      <path class="cls-1" d="M281.38,1038.39c-3.58,3.27-9.37,3.27-12.95,0-3.58-3.27-3.58-8.57,0-11.84s9.37-3.27,12.95,0c3.58,3.27,3.58,8.57,0,11.84Z"/>
      <path class="cls-4" d="M618.46,546.98c-3.22,2.94-8.43,2.94-11.65,0s-3.22-7.71,0-10.65,8.43-2.94,11.65,0c3.22,2.94,3.22,7.71,0,10.65Z"/>
      <path class="cls-2" d="M418.5,627.05c-3.22,2.94-8.43,2.94-11.65,0s-3.22-7.71,0-10.65,8.43-2.94,11.65,0,3.22,7.71,0,10.65Z"/>
      <path class="cls-2" d="M245.42,214.07c-8.9-.72-15.61-7.89-15-16.02.62-8.13,8.33-14.15,17.23-13.43,8.9.72,15.61,7.89,15,16.02-.62,8.13-8.33,14.15-17.23,13.43Z"/>
      <ellipse class="cls-4" cx="419.47" cy="490.82" rx="16.16" ry="14.77"/>
      <ellipse class="cls-2" cx="970.38" cy="902.91" rx="15.23" ry="13.93"/>
      <ellipse class="cls-4" cx="730.48" cy="290.61" rx="19.28" ry="17.63"/>
      <ellipse class="cls-5" cx="132.39" cy="1028.72" rx="8.62" ry="7.88"/>
      <ellipse class="cls-4" cx="409.86" cy="741.09" rx="14.31" ry="13.08"/>
      <path class="cls-5" d="M932.42,1050.39c-2.89,2.64-7.58,2.64-10.47,0-2.89-2.64-2.89-6.92,0-9.57,2.89-2.64,7.58-2.64,10.47,0,2.89,2.64,2.89,6.92,0,9.57Z"/>
      <ellipse class="cls-5" cx="343.33" cy="122.54" rx="15.95" ry="14.58"/>
      <ellipse class="cls-6" cx="238.33" cy="913.26" rx="15.95" ry="14.58"/>
      <ellipse class="cls-5" cx="869.04" cy="149.52" rx="15.95" ry="14.58"/>
      <ellipse class="cls-5" cx="498.82" cy="827.24" rx="7.06" ry="6.46"/>
      <path class="cls-1" d="M826.9,953.33c8.26,3.22,12.41,12.73,9.28,21.22s-12.36,12.78-20.62,9.55c-8.26-3.22-12.41-12.73-9.28-21.22,3.13-8.5,12.36-12.78,20.62-9.55Z"/>
      <ellipse class="cls-3" cx="981.76" cy="801.87" rx="11.38" ry="10.4"/>
      <path class="cls-1" d="M117.03,286.09c8.69,1.73,14.44,10.37,12.84,19.28s-9.95,14.74-18.64,13c-8.69-1.73-14.44-10.37-12.84-19.28s9.95-14.74,18.64-13Z"/>
      <path class="cls-4" d="M826.14,749.03c8.26,3.22,12.41,12.73,9.28,21.22-3.13,8.5-12.36,12.78-20.62,9.55-8.26-3.22-12.41-12.73-9.28-21.22,3.13-8.5,12.36-12.78,20.62-9.55Z"/>
      <path class="cls-1" d="M486.45,309.88c-4.63,3.95-11.3,3.72-14.91-.51-3.61-4.23-2.78-10.86,1.84-14.8,4.63-3.95,11.3-3.72,14.91.51,3.61,4.23,2.78,10.86-1.84,14.8Z"/>
      <ellipse class="cls-2" cx="69.16" cy="501.42" rx="13.53" ry="14.8" transform="translate(-241.44 101.76) rotate(-30)"/>
      <ellipse class="cls-4" cx="1009.32" cy="308.53" rx="8.74" ry="7.99"/>
      <ellipse class="cls-1" cx="560.08" cy="84.25" rx="12.71" ry="11.62"/>
      <ellipse class="cls-3" cx="661.72" cy="1040.78" rx="9.9" ry="10.84" transform="translate(-441.47 1592.21) rotate(-84.11)"/>
      <path class="cls-5" d="M1012.16,639.44c-5.82,1.03-11.3-2.45-12.24-7.76-.94-5.32,3.01-10.46,8.83-11.49s11.3,2.45,12.24,7.76c.94,5.32-3.01,10.46-8.83,11.49Z"/>
      <ellipse class="cls-3" cx="506.21" cy="575.82" rx="11.38" ry="10.4"/>
      <ellipse class="cls-5" cx="562.3" cy="402.57" rx="19.69" ry="18"/>
      <path class="cls-2" d="M727.01,47.45c-5.01,4.58-13.14,4.58-18.15,0s-5.01-12.01,0-16.59c5.01-4.58,13.14-4.58,18.15,0,5.01,4.58,5.01,12.01,0,16.59Z"/>
      <path class="cls-3" d="M893.24,395.12c-5.01,4.58-13.14,4.58-18.15,0s-5.01-12.01,0-16.59,13.14-4.58,18.15,0,5.01,12.01,0,16.59Z"/>
      <ellipse class="cls-6" cx="595.91" cy="921.33" rx="16" ry="14.63"/>
      <ellipse class="cls-3" cx="701.06" cy="874.09" rx="16" ry="14.63"/>
      <path class="cls-6" d="M1028.79,179.54c-3.58,3.27-9.37,3.27-12.95,0s-3.58-8.57,0-11.84,9.37-3.27,12.95,0,3.58,8.57,0,11.84Z"/>
      <polygon class="cls-1" points="206.64 116.61 206.57 87.5 234.01 95.45 206.64 116.61"/>
      <polygon class="cls-1" points="691.76 759.36 707.34 739.92 723.03 766.78 691.76 759.36"/>
      <polygon class="cls-6" points="831.93 442.62 861.61 456.06 837.68 479.17 831.93 442.62"/>
      <polygon class="cls-3" points="193.05 453.73 222.03 451.04 216.58 479.08 193.05 453.73"/>
      <polygon class="cls-1" points="546.67 1071.81 562.24 1052.37 577.94 1079.23 546.67 1071.81"/>
      <polygon class="cls-6" points="287.59 785.58 317.27 799.02 293.34 822.14 287.59 785.58"/>
      <polygon class="cls-1" points="316.75 463.52 340.84 441.95 355.57 479.37 316.75 463.52"/>
      <polygon class="cls-2" points="505.46 255.8 527.47 227.98 549.63 266.42 505.46 255.8"/>
      <polygon class="cls-1" points="679.19 165.56 684.78 129.08 716.86 148.18 679.19 165.56"/>
      <polygon class="cls-4" points="372.61 1001.65 344.91 994.15 362.36 970.33 372.61 1001.65"/>
      <polygon class="cls-1" points="480.18 729.68 502.17 701.87 524.32 740.3 480.18 729.68"/>
      <polygon class="cls-3" points="887.52 230.37 916.51 227.68 911.05 255.72 887.52 230.37"/>
      <polygon class="cls-1" points="1011.22 240.16 1035.32 218.59 1050.04 256.01 1011.22 240.16"/>
      <polygon class="cls-3" points="250.78 202.51 279.77 199.83 274.31 227.87 250.78 202.51"/>
      <polygon class="cls-6" points="347.61 309.04 329.12 280.94 369.87 271.52 347.61 309.04"/>
      <polygon class="cls-6" points="506.94 521.58 535.93 518.9 530.47 546.93 506.94 521.58"/>
      <polygon class="cls-1" points="645.5 548.13 669.59 526.56 684.32 563.97 645.5 548.13"/>
      <polygon class="cls-5" points="799.54 864.45 828.52 861.76 823.07 889.8 799.54 864.45"/>
      <polygon class="cls-6" points="970.98 1009.17 995.07 987.6 1009.8 1025.02 970.98 1009.17"/>
      <path class="cls-2" d="M624.12,966.55c-.66-1.58-.89-3.25-.62-4.9.29-1.76,1.96-2.96,3.72-2.67,1.76.29,2.96,1.96,2.67,3.72-.26,1.59,1.48,3.67,3.98,4.73,1.12.48,4.98,1.77,7.44-1.55,3.37-4.55,8.33-6.46,12.94-4.99,4.78,1.53,7.94,6.28,8.04,12.09.05,2.75,1.41,4.87,3.55,5.52,2.34.71,4.84-.46,6.69-3.13,1.02-1.47,3.04-1.83,4.51-.81,1.47,1.02,1.83,3.04.81,4.51-3.49,5.01-8.81,7.17-13.89,5.62-4.85-1.47-8.04-6.03-8.14-11.6-.05-2.99-1.45-5.36-3.55-6.04-1.94-.62-4.04.35-5.76,2.68-3.46,4.66-9.41,6.1-15.17,3.65-3.46-1.47-6.03-3.99-7.22-6.84h0Z"/>
      <path class="cls-3" d="M427.44,878.97c-1.75.89-3.68,1.44-5.75,1.59-5.47.42-10.87-2.03-13.74-6.24-1.21-1.78-3.04-2.71-5.13-2.62-2.65.12-5.2,1.78-6.64,4.35-2.28,4.05-6.76,6.62-12,6.86-5.31.25-10.24-1.96-12.87-5.76-.99-1.43-2.29-2.1-3.96-2.04-2.17.07-4.28,1.4-4.98,2.58-.91,1.54-2.9,2.04-4.44,1.13s-2.04-2.9-1.13-4.44c1.92-3.24,6.17-5.59,10.32-5.74,3.88-.13,7.26,1.58,9.51,4.83,1.35,1.95,4.19,3.12,7.24,2.98,2.99-.14,5.48-1.47,6.66-3.57,2.53-4.51,7.13-7.44,12-7.65,4.35-.19,8.28,1.79,10.76,5.44,1.56,2.29,4.74,3.67,7.89,3.43,1.89-.15,5.36-1.02,7.38-5.26.77-1.61,2.7-2.3,4.32-1.53,1.61.77,2.3,2.7,1.53,4.32-1.58,3.3-4,5.82-6.98,7.33h0Z"/>
      <path class="cls-1" d="M99.95,921.82c-1.71,0-3.34-.43-4.76-1.32-1.52-.95-1.98-2.94-1.03-4.46.95-1.52,2.94-1.98,4.46-1.03,1.37.86,3.96.04,5.89-1.85.87-.85,3.55-3.92,1.44-7.47-2.9-4.87-2.76-10.18.38-13.86,3.26-3.83,8.85-4.91,14.25-2.77,2.56,1.01,5.03.57,6.46-1.15,1.55-1.88,1.44-4.64-.31-7.38-.96-1.51-.52-3.51.99-4.47,1.51-.96,3.51-.52,4.47.99,3.28,5.15,3.22,10.89-.16,14.99-3.23,3.91-8.66,5.1-13.84,3.05-2.78-1.1-5.5-.73-6.94.95-1.32,1.55-1.23,3.87.25,6.35,2.97,4.98,2,11.03-2.47,15.41-2.69,2.63-6,4.03-9.09,4.03h.01Z"/>
      <path class="cls-3" d="M992.05,751.52c1.88.55,3.89.73,5.95.5,5.46-.6,10.3-4.01,12.34-8.67.86-1.97,2.48-3.22,4.56-3.52,2.63-.38,5.44.79,7.33,3.04,2.99,3.56,7.87,5.25,13.06,4.52,5.26-.74,9.7-3.82,11.58-8.05.71-1.59,1.86-2.49,3.51-2.74,2.15-.33,4.46.58,5.37,1.61,1.18,1.34,3.23,1.47,4.57.29s1.47-3.23.29-4.57c-2.49-2.82-7.1-4.35-11.21-3.73-3.84.59-6.84,2.9-8.45,6.51-.97,2.17-3.54,3.85-6.57,4.27-2.97.42-5.66-.43-7.2-2.27-3.32-3.96-8.39-5.98-13.21-5.29-4.31.62-7.8,3.3-9.57,7.34-1.11,2.54-3.97,4.48-7.12,4.83-1.88.21-5.45-.01-8.23-3.8-1.06-1.44-3.08-1.76-4.52-.7s-1.76,3.08-.7,4.52c2.16,2.95,5.01,4.97,8.21,5.91h0Z"/>
      <path class="cls-5" d="M870.1,62.5c-.97-1.41-1.54-3-1.61-4.67-.08-1.79,1.31-3.3,3.09-3.38,1.79-.08,3.3,1.31,3.38,3.09.07,1.61,2.21,3.29,4.86,3.81,1.2.23,5.24.71,6.97-3.05,2.37-5.15,6.83-8.04,11.64-7.54,5,.52,9.06,4.51,10.36,10.17.61,2.68,2.38,4.47,4.61,4.67,2.43.21,4.64-1.44,5.91-4.44.7-1.65,2.6-2.42,4.24-1.72,1.65.7,2.41,2.6,1.72,4.24-2.38,5.62-7.15,8.83-12.44,8.36-5.05-.45-9.11-4.24-10.35-9.68-.67-2.92-2.52-4.95-4.71-5.18-2.03-.21-3.88,1.18-5.09,3.81-2.42,5.27-7.95,7.9-14.09,6.7-3.69-.72-6.72-2.66-8.47-5.21l-.02.02Z"/>
      <path class="cls-6" d="M995.53,541.52c-.66-1.58-.89-3.25-.62-4.9.29-1.76,1.96-2.96,3.72-2.67,1.76.29,2.96,1.96,2.67,3.72-.26,1.59,1.48,3.67,3.98,4.73,1.12.48,4.98,1.77,7.44-1.55,3.38-4.55,8.33-6.46,12.94-4.99,4.78,1.53,7.94,6.28,8.04,12.09.05,2.75,1.41,4.87,3.55,5.52,2.34.71,4.84-.46,6.69-3.13,1.02-1.47,3.04-1.83,4.51-.81s1.83,3.04.81,4.51c-3.49,5.01-8.81,7.17-13.89,5.62-4.85-1.47-8.04-6.03-8.14-11.6-.05-2.99-1.45-5.36-3.55-6.04-1.94-.62-4.04.35-5.76,2.68-3.46,4.66-9.41,6.1-15.17,3.65-3.46-1.47-6.03-3.99-7.22-6.84h0Z"/>
      <path class="cls-1" d="M478.88,484.56c-1.75.89-3.68,1.44-5.75,1.59-5.47.42-10.87-2.03-13.74-6.24-1.21-1.78-3.04-2.71-5.13-2.62-2.65.12-5.2,1.78-6.64,4.35-2.28,4.05-6.76,6.62-12,6.86-5.31.25-10.24-1.96-12.87-5.76-.99-1.43-2.29-2.1-3.96-2.04-2.17.07-4.28,1.4-4.98,2.58-.91,1.54-2.9,2.04-4.44,1.13s-2.04-2.9-1.13-4.44c1.92-3.24,6.17-5.59,10.32-5.74,3.88-.13,7.26,1.58,9.51,4.83,1.35,1.95,4.19,3.12,7.24,2.98,2.99-.14,5.48-1.47,6.66-3.57,2.53-4.51,7.13-7.43,12-7.65,4.35-.19,8.28,1.79,10.76,5.44,1.56,2.29,4.74,3.67,7.89,3.43,1.89-.15,5.36-1.02,7.38-5.26.77-1.61,2.7-2.3,4.32-1.53,1.61.77,2.3,2.7,1.53,4.32-1.58,3.3-4,5.82-6.98,7.33h0Z"/>
      <path class="cls-6" d="M906.11,194.52c-1.71,0-3.34-.43-4.76-1.32-1.52-.95-1.98-2.94-1.03-4.46.95-1.52,2.94-1.98,4.46-1.03,1.37.86,3.96.04,5.89-1.85.87-.85,3.55-3.92,1.44-7.47-2.9-4.87-2.76-10.18.38-13.86,3.26-3.83,8.85-4.91,14.25-2.77,2.56,1.01,5.03.57,6.46-1.15,1.55-1.88,1.44-4.64-.31-7.38-.96-1.51-.52-3.51.99-4.47s3.51-.52,4.47.99c3.28,5.15,3.22,10.89-.16,14.99-3.23,3.91-8.66,5.1-13.84,3.05-2.78-1.1-5.5-.73-6.94.95-1.32,1.55-1.23,3.87.25,6.35,2.97,4.98,2,11.03-2.47,15.41-2.69,2.63-6,4.03-9.09,4.03h.01Z"/>
      <path class="cls-3" d="M216.28,589.66c1.88.55,3.89.73,5.95.5,5.46-.6,10.3-4.01,12.34-8.67.86-1.97,2.48-3.22,4.56-3.52,2.63-.38,5.44.79,7.33,3.04,2.99,3.56,7.87,5.25,13.06,4.52,5.26-.74,9.7-3.82,11.58-8.05.71-1.59,1.86-2.49,3.51-2.74,2.15-.33,4.46.58,5.37,1.61,1.18,1.34,3.23,1.47,4.57.29s1.47-3.23.29-4.57c-2.49-2.82-7.1-4.35-11.21-3.73-3.84.59-6.84,2.9-8.45,6.51-.97,2.17-3.54,3.85-6.57,4.27-2.97.42-5.66-.43-7.2-2.27-3.32-3.96-8.38-5.98-13.21-5.29-4.31.62-7.8,3.3-9.57,7.34-1.11,2.54-3.97,4.49-7.12,4.83-1.88.21-5.45-.01-8.23-3.8-1.06-1.44-3.08-1.76-4.52-.7s-1.76,3.08-.7,4.52c2.16,2.95,5.01,4.97,8.21,5.91h.01Z"/>
      <path class="cls-6" d="M522.73,243.86c-.97-1.41-1.54-3-1.61-4.67-.08-1.79,1.31-3.3,3.09-3.38,1.79-.08,3.3,1.31,3.38,3.09.07,1.61,2.21,3.29,4.86,3.81,1.2.23,5.24.71,6.97-3.05,2.37-5.15,6.83-8.04,11.64-7.54,5,.52,9.06,4.51,10.36,10.17.61,2.68,2.38,4.47,4.61,4.67,2.43.21,4.64-1.44,5.91-4.44.7-1.65,2.6-2.42,4.24-1.72,1.65.7,2.41,2.6,1.72,4.24-2.38,5.62-7.15,8.83-12.44,8.36-5.05-.45-9.11-4.24-10.35-9.68-.67-2.92-2.52-4.95-4.71-5.18-2.03-.21-3.88,1.18-5.09,3.81-2.42,5.27-7.95,7.9-14.09,6.7-3.69-.72-6.72-2.66-8.47-5.21l-.02.02Z"/>
      <path class="cls-3" d="M138.54,192.51c-1.96,0-3.93-.39-5.85-1.19-5.07-2.11-8.76-6.74-9.41-11.79-.27-2.14-1.48-3.79-3.39-4.66-2.42-1.1-5.44-.77-7.89.86-3.87,2.58-9.03,2.83-13.81.67-4.84-2.19-8.23-6.39-8.85-10.98-.23-1.73-1.08-2.91-2.6-3.62-1.97-.92-4.45-.7-5.61.04-1.51.96-3.51.5-4.47-1.01-.95-1.51-.5-3.51,1.01-4.47,3.18-2.01,8.03-2.19,11.8-.43,3.52,1.64,5.75,4.7,6.28,8.62.32,2.35,2.32,4.69,5.1,5.94,2.73,1.23,5.55,1.17,7.55-.16,4.3-2.87,9.73-3.39,14.17-1.37,3.97,1.81,6.56,5.35,7.12,9.73.35,2.75,2.55,5.42,5.48,6.64,1.75.73,5.24,1.52,8.96-1.34,1.42-1.09,3.45-.82,4.54.6,1.09,1.42.82,3.45-.6,4.54-2.9,2.23-6.2,3.37-9.54,3.37h.01Z"/>
      <path class="cls-1" d="M996.36,961.22c-.14-1.51.1-3,.76-4.33.71-1.42,2.44-2,3.86-1.29s2,2.44,1.29,3.86c-.64,1.28.3,3.51,2.13,5.06.83.7,3.77,2.81,6.73.64,4.06-2.98,8.78-3.3,12.3-.83,3.66,2.56,5.09,7.42,3.65,12.38-.68,2.35-.08,4.5,1.56,5.62,1.8,1.22,4.23.88,6.51-.9,1.25-.98,3.06-.75,4.04.5s.75,3.06-.5,4.04c-4.28,3.34-9.37,3.77-13.28,1.12-3.73-2.53-5.24-7.23-3.86-11.99.74-2.55.18-4.93-1.43-6.06-1.48-1.04-3.53-.76-5.6.76-4.16,3.05-9.59,2.7-13.84-.88-2.55-2.16-4.07-4.97-4.33-7.7h0Z"/>
      <path class="cls-3" d="M802.83,720.78c-1.72.3-3.51.25-5.3-.16-4.76-1.08-8.69-4.58-10.03-8.91-.56-1.83-1.87-3.1-3.67-3.57-2.28-.6-4.88.15-6.78,1.95-3,2.84-7.48,3.84-11.99,2.67-4.57-1.18-8.18-4.36-9.41-8.28-.47-1.48-1.39-2.39-2.82-2.78-1.87-.51-4,.06-4.91.88-1.18,1.07-3,.97-4.06-.21s-.97-3,.21-4.06c2.48-2.24,6.71-3.13,10.27-2.16,3.33.91,5.75,3.25,6.8,6.6.63,2.01,2.74,3.75,5.37,4.43,2.58.67,5.04.19,6.59-1.28,3.33-3.16,8.01-4.44,12.2-3.34,3.75.98,6.56,3.7,7.71,7.45.73,2.36,3.06,4.36,5.8,4.99,1.64.37,4.82.54,7.65-2.53,1.08-1.17,2.9-1.24,4.07-.16s1.24,2.9.16,4.07c-2.21,2.39-4.93,3.89-7.85,4.39h-.01Z"/>
      <path class="cls-5" d="M499.23,719.78c-1.45-.45-2.73-1.24-3.7-2.37-1.04-1.2-.9-3.02.3-4.06,1.2-1.04,3.02-.9,4.06.3.94,1.09,3.35,1.08,5.49-.02.97-.5,4.05-2.39,3.18-5.96-1.19-4.9.33-9.37,3.97-11.67,3.77-2.39,8.81-1.85,12.83,1.39,1.91,1.53,4.12,1.81,5.79.72,1.81-1.19,2.44-3.56,1.68-6.35-.42-1.53.48-3.12,2.01-3.54s3.12.48,3.54,2.01c1.44,5.24-.12,10.1-4.07,12.68-3.77,2.47-8.69,2.06-12.55-1.05-2.07-1.67-4.48-2.07-6.14-1.01-1.53.97-2.06,2.96-1.46,5.46,1.21,5.01-1.2,9.89-6.14,12.44-2.97,1.53-6.16,1.85-8.78,1.03h0Z"/>
      <path class="cls-6" d="M349.54,1064.37c.93,1.48,2.15,2.78,3.66,3.84,3.98,2.82,9.21,3.42,13.32,1.52,1.74-.8,3.55-.68,5.11.35,1.97,1.3,3.15,3.73,3.08,6.35-.11,4.13,2.13,8.14,6.01,10.72,3.93,2.61,8.7,3.18,12.45,1.48,1.41-.64,2.7-.56,3.95.25,1.62,1.05,2.62,3.02,2.62,4.24,0,1.59,1.28,2.88,2.87,2.89,1.59,0,2.88-1.28,2.89-2.87.01-3.35-2.15-7.08-5.25-9.09-2.9-1.88-6.26-2.11-9.46-.66-1.92.87-4.63.47-6.89-1.04-2.22-1.47-3.51-3.63-3.45-5.76.13-4.59-2.04-8.93-5.66-11.32-3.23-2.13-7.13-2.41-10.69-.77-2.24,1.03-5.29.64-7.58-.99-1.37-.97-3.62-3.23-3.22-7.38.15-1.58-1.01-2.99-2.59-3.14s-2.99,1.01-3.14,2.59c-.31,3.24.39,6.26,1.97,8.78h0Z"/>
      <path class="cls-1" d="M437.71,77.47c-.45-1.45-.52-2.95-.14-4.39.4-1.54,1.98-2.46,3.51-2.05,1.54.4,2.46,1.98,2.05,3.51-.37,1.39,1.01,3.37,3.13,4.51.96.51,4.26,1.98,6.72-.76,3.36-3.75,7.91-5.03,11.87-3.35,4.11,1.75,6.51,6.21,6.12,11.36-.18,2.44.84,4.42,2.69,5.18,2.01.82,4.32,0,6.18-2.22,1.02-1.21,2.84-1.37,4.05-.34,1.22,1.02,1.37,2.84.34,4.05-3.5,4.15-8.39,5.62-12.76,3.83-4.17-1.7-6.62-6-6.25-10.94.2-2.65-.84-4.86-2.64-5.63-1.67-.71-3.61-.02-5.32,1.89-3.44,3.84-8.83,4.62-13.73,1.98-2.94-1.58-5.01-4.03-5.83-6.65v.02Z"/>
      <path class="cls-3" d="M772.44,332.24c-1.66-.52-3.24-1.37-4.65-2.55-3.75-3.12-5.67-8.02-4.89-12.49.33-1.89-.26-3.61-1.65-4.85-1.76-1.57-4.42-2.08-6.93-1.34-3.96,1.17-8.41.03-11.9-3.06-3.54-3.13-5.31-7.59-4.63-11.65.26-1.53-.16-2.76-1.26-3.76-1.43-1.3-3.59-1.76-4.77-1.44-1.54.41-3.11-.5-3.53-2.03-.41-1.53.5-3.11,2.03-3.53,3.23-.87,7.4.26,10.14,2.74,2.56,2.32,3.65,5.51,3.07,8.97-.35,2.08.74,4.59,2.77,6.39,1.99,1.77,4.41,2.46,6.45,1.85,4.4-1.3,9.15-.32,12.39,2.56,2.89,2.58,4.16,6.27,3.49,10.13-.42,2.43.74,5.27,2.91,7.08,1.29,1.08,4.05,2.67,7.96,1.22,1.49-.55,3.15.21,3.7,1.7.55,1.49-.21,3.15-1.7,3.7-3.05,1.13-6.15,1.23-8.99.35h0Z"/>
      <path class="cls-2" d="M572.71,330.26c-3.22,2.94-8.43,2.94-11.65,0s-3.22-7.71,0-10.65,8.43-2.94,11.65,0c3.22,2.94,3.22,7.71,0,10.65Z"/>
      <ellipse class="cls-3" cx="660.42" cy="279.02" rx="11.38" ry="10.4"/>
    </g>
    <g class="cls-7">
      <text class="cls-8" transform="translate(465.71 448.33)"><tspan x="0" y="0">Feliz</tspan></text>
      <text class="cls-10" transform="translate(321.87 592.77)"><tspan x="0" y="0">Aniversário</tspan></text>
      <text class="cls-9" transform="translate(126.1 737.22)"><tspan x="0" y="0">Nanilda Tchimanda</tspan></text>
    </g>
  </g>
</svg>