<?xml version="1.0" encoding="UTF-8"?>
<svg id="Layer_1" xmlns="http://www.w3.org/2000/svg" version="1.1" viewBox="0 0 800 800">
  <!-- Generator: Adobe Illustrator 29.3.1, SVG Export Plug-In . SVG Version: 2.1.0 Build 151)  -->
  <defs>
    <style>
      .st0, .st1, .st2 {
        fill: #fff;
      }

      .st3, .st1 {
        font-family: EndgameDEMO-Regular, 'Endgame DEMO';
        font-size: 72px;
      }

      .st3, .st1, .st4 {
        isolation: isolate;
      }

      .st3, .st5, .st6 {
        fill: #9a7cf8;
      }

      .st6, .st7, .st2 {
        stroke: #333;
        stroke-miterlimit: 10;
        stroke-width: 6px;
      }

      .st7 {
        fill: #ecf0f1;
      }
    </style>
  </defs>
  <g>
    <path class="st7" d="M454.6,668.7c-5,0-9.1-4.1-9.1-9.1v-100.2c0-5,4.1-9.1,9.1-9.1s9.1,4.1,9.1,9.1v100.2c0,5-4.1,9.1-9.1,9.1"/>
    <path class="st7" d="M299.8,668.7c-5,0-9.1-4.1-9.1-9.1v-54.6c0-5,4.1-9.1,9.1-9.1s9.1,4.1,9.1,9.1v54.6c0,5-4.1,9.1-9.1,9.1"/>
  </g>
  <path class="st2" d="M318,568.5c32.6-33.1,97.1-96.5,113.3-114.4,60.7-66.9,32.4-168-52.4-168s-66.6,21.4-79.1,53c-12.5-31.6-39.5-53-79.1-53-84.8,0-113,101-52.4,168,16.2,17.9,80.7,81.2,113.3,114.3h36.4Z"/>
  <path class="st5" d="M418.2,358.2c-3.5,0-6.8-2-8.3-5.4-6.2-14-18-21.1-35.1-21.1s-9.1-4.1-9.1-9.1,4.1-9.1,9.1-9.1c24.3,0,42.7,11.3,51.8,31.9,2,4.6,0,10-4.6,12-1.2.5-2.5.8-3.7.8"/>
  <polygon class="st2" points="427.3 559.4 482 559.4 472.9 523 436.4 523 427.3 559.4"/>
  <polygon class="st6" points="272.5 604.9 327.1 604.9 318 568.5 281.6 568.5 272.5 604.9"/>
  <path class="st6" d="M353.6,131.3c50.5,0,85.1,30.2,101.1,72.9,16-42.7,50.5-72.9,101.1-72.9,108.3,0,144.4,136.3,66.9,226.7-22.3,26-112,124.5-149.8,165h-36.4c-9.3-10-20.1-23.7-34.2-38.9,12.8-13.3,23.7-24,29-30,60.7-66.9,32.4-168-52.4-168s-66.6,21.4-79.1,53c-9-22.8-25.6-40.1-48.9-48.1-21.5-78.6,19.1-159.8,102.7-159.8"/>
  <path class="st2" d="M645.9,568.5c-1.4,0-2.8-.3-4.1-1-4.5-2.3-6.3-7.7-4.1-12.2l5-9.9c.7-1.5.5-3.2-.7-4.3l-2.5-2.5c-8.6-8.6-8.6-22.5,0-31.1,1.5-1.5,1.5-3.9,0-5.3l-2.5-2.5c-6.7-6.7-8.4-16.9-4.1-25.4l5-9.9c2.3-4.5,7.7-6.3,12.2-4.1s6.3,7.7,4.1,12.2l-5,9.9c-.7,1.5-.5,3.2.7,4.4l2.5,2.5c8.6,8.6,8.6,22.5,0,31.1s-1.5,3.9,0,5.3l2.5,2.5c6.7,6.7,8.4,16.9,4.1,25.4l-5,9.9c-1.6,3.2-4.8,5-8.2,5"/>
  <path class="st6" d="M184.2,249.7c-1.4,0-2.8-.3-4.1-1-4.5-2.3-6.3-7.7-4.1-12.2l4.9-9.9c.7-1.4.4-3.2-.7-4.4l-2.5-2.5c-8.6-8.6-8.6-22.5,0-31.1s1.5-3.9,0-5.3l-2.5-2.5c-6.7-6.7-8.4-16.9-4.1-25.4l4.9-9.9c2.3-4.5,7.7-6.3,12.2-4.1,4.5,2.3,6.3,7.7,4.1,12.2l-5,9.9c-.7,1.4-.4,3.2.7,4.3l2.6,2.6c8.6,8.6,8.6,22.5,0,31.1s-1.5,3.9,0,5.3l2.5,2.5c6.7,6.7,8.4,16.9,4.1,25.4l-4.9,9.9c-1.6,3.2-4.8,5-8.2,5"/>
  <path class="st0" d="M609.1,213.3c-3.4,0-6.8-2-8.3-5.3-9.5-20.6-28-31.1-55.1-31.1s-9.1-4.1-9.1-9.1,4.1-9.1,9.1-9.1c43.3,0,62.9,22.7,71.6,41.7,2.1,4.6,0,10-4.5,12.1-1.2.6-2.5.8-3.8.8"/>
  <g class="st4">
    <text class="st3" transform="translate(168.8 427.3)"><tspan x="0" y="0">P</tspan></text>
    <text class="st3" transform="translate(211.3 427.3)"><tspan x="0" y="0">R</tspan></text>
    <text class="st3" transform="translate(251.4 427.3)"><tspan x="0" y="0">I</tspan></text>
    <text class="st3" transform="translate(270.6 427.3)"><tspan x="0" y="0">S</tspan></text>
    <text class="st3" transform="translate(308.9 427.3)"><tspan x="0" y="0">E</tspan></text>
  </g>
  <g class="st4">
    <text class="st1" transform="translate(482 286.2)"><tspan x="0" y="0">SUR</tspan></text>
  </g>
</svg>