<?xml version="1.0" encoding="UTF-8"?>
<svg id="Layer_1" data-name="Layer 1" xmlns="http://www.w3.org/2000/svg" viewBox="0 0 800 800">
  <defs>
    <style>
      .cls-1, .cls-2, .cls-3 {
        fill: #ed1c24;
      }

      .cls-1, .cls-4, .cls-5 {
        stroke: #333;
        stroke-miterlimit: 10;
        stroke-width: 6px;
      }

      .cls-6 {
        letter-spacing: -.05em;
      }

      .cls-2, .cls-7 {
        font-family: EndgameDEMO-Regular, 'Endgame DEMO';
        font-size: 72px;
      }

      .cls-7, .cls-4, .cls-8 {
        fill: #fff;
      }

      .cls-9 {
        letter-spacing: 0em;
      }

      .cls-3, .cls-8 {
        stroke-width: 0px;
      }

      .cls-10 {
        letter-spacing: 0em;
      }

      .cls-11 {
        letter-spacing: -.03em;
      }

      .cls-5 {
        fill: #ecf0f1;
      }
    </style>
  </defs>
  <g>
    <path class="cls-5" d="M454.64,668.67c-5.03,0-9.11-4.08-9.11-9.11v-100.18c0-5.03,4.08-9.11,9.11-9.11s9.11,4.08,9.11,9.11v100.18c0,5.03-4.08,9.11-9.11,9.11"/>
    <path class="cls-5" d="M299.82,668.67c-5.03,0-9.11-4.08-9.11-9.11v-54.64c0-5.03,4.08-9.11,9.11-9.11s9.11,4.08,9.11,9.11v54.64c0,5.03-4.08,9.11-9.11,9.11"/>
  </g>
  <path class="cls-4" d="M318.03,568.49c32.61-33.12,97.05-96.46,113.26-114.35,60.66-66.94,32.4-167.98-52.36-167.98-39.56,0-66.61,21.4-79.12,53.05-12.5-31.65-39.55-53.05-79.12-53.05-84.76,0-113.01,101.04-52.36,167.98,16.21,17.9,80.65,81.23,113.26,114.35h36.43Z"/>
  <path class="cls-3" d="M418.22,358.21c-3.49,0-6.82-2.02-8.33-5.42-6.2-14-18.02-21.09-35.13-21.09-5.03,0-9.11-4.08-9.11-9.11s4.08-9.11,9.11-9.11c24.26,0,42.66,11.34,51.78,31.92,2.04,4.6-.04,9.98-4.64,12.02-1.2.53-2.46.78-3.69.78"/>
  <polygon class="cls-4" points="427.32 559.38 481.97 559.38 472.86 522.95 436.43 522.95 427.32 559.38"/>
  <polygon class="cls-1" points="272.5 604.92 327.14 604.92 318.03 568.49 281.6 568.49 272.5 604.92"/>
  <path class="cls-1" d="M353.56,131.33c50.55,0,85.11,30.16,101.09,72.86,15.97-42.7,50.54-72.86,101.08-72.86,108.31,0,144.42,136.33,66.9,226.66-22.3,25.99-111.98,124.45-149.77,164.96h-36.43c-9.34-10.01-20.13-23.72-34.19-38.85,12.84-13.29,23.68-24.03,29.05-29.96,60.66-66.94,32.4-167.98-52.37-167.98-39.55,0-66.6,21.4-79.11,53.04-9-22.76-25.63-40.06-48.92-48.07-21.46-78.59,19.05-159.8,102.65-159.8"/>
  <path class="cls-4" d="M645.89,568.49c-1.37,0-2.76-.31-4.06-.96-4.5-2.26-6.33-7.72-4.08-12.22l4.95-9.92c.73-1.45.45-3.2-.7-4.35l-2.54-2.54c-8.57-8.57-8.57-22.52,0-31.09,1.48-1.48,1.48-3.86,0-5.34l-2.54-2.54c-6.71-6.7-8.36-16.9-4.12-25.38l4.95-9.91c2.26-4.49,7.72-6.34,12.22-4.08s6.33,7.72,4.08,12.22l-4.95,9.92c-.74,1.45-.45,3.2.7,4.35l2.54,2.54c8.57,8.57,8.57,22.52,0,31.09-1.48,1.48-1.48,3.86,0,5.34l2.54,2.54c6.71,6.7,8.36,16.9,4.12,25.38l-4.95,9.91c-1.6,3.19-4.82,5.04-8.16,5.04"/>
  <path class="cls-1" d="M184.21,249.73c-1.37,0-2.76-.31-4.06-.96-4.5-2.26-6.33-7.72-4.08-12.22l4.95-9.92c.73-1.45.45-3.2-.7-4.35l-2.54-2.54c-8.57-8.57-8.57-22.52,0-31.09,1.48-1.48,1.48-3.86,0-5.34l-2.54-2.54c-6.7-6.69-8.36-16.89-4.13-25.37l4.95-9.92c2.26-4.51,7.73-6.33,12.22-4.08,4.5,2.26,6.33,7.73,4.08,12.22l-4.96,9.92c-.73,1.45-.45,3.2.7,4.34l2.55,2.55c8.57,8.57,8.57,22.52,0,31.09-1.48,1.48-1.48,3.86,0,5.34l2.54,2.54c6.71,6.7,8.36,16.9,4.12,25.38l-4.95,9.91c-1.6,3.19-4.82,5.04-8.16,5.04"/>
  <path class="cls-8" d="M609.08,213.3c-3.44,0-6.75-1.97-8.28-5.31-9.5-20.65-28.02-31.12-55.08-31.12-5.03,0-9.11-4.08-9.11-9.11s4.08-9.11,9.11-9.11c43.35,0,62.88,22.7,71.63,41.74,2.1,4.56.1,9.97-4.47,12.08-1.23.56-2.52.83-3.8.83"/>
  <text class="cls-2" transform="translate(168.79 427.32)"><tspan class="cls-11" x="0" y="0">P</tspan><tspan class="cls-6" x="42.48" y="0">R</tspan><tspan class="cls-10" x="82.58" y="0">I</tspan><tspan class="cls-11" x="101.81" y="0">S</tspan><tspan class="cls-9" x="140.11" y="0">E</tspan></text>
  <text class="cls-7" transform="translate(481.97 286.16)"><tspan x="0" y="0">SUR</tspan></text>
</svg>