<?xml version="1.0" encoding="utf-8"?>
<!-- Generator: Adobe Illustrator 28.3.0, SVG Export Plug-In . SVG Version: 6.00 Build 0)  -->
<svg version="1.1" id="Layer_1" xmlns="http://www.w3.org/2000/svg" xmlns:xlink="http://www.w3.org/1999/xlink" x="0px" y="0px"
	 viewBox="0 0 800 800" style="enable-background:new 0 0 800 800;" xml:space="preserve">
<style type="text/css">
	.st0{fill:#1F1C3F;stroke:#000000;stroke-width:20;stroke-miterlimit:10;}
	.st1{fill:#FFFFFF;stroke:#000000;stroke-width:20;stroke-miterlimit:10;}
	.st2{fill:#FFFFFF;}
	.st3{fill:#1F1C3F;}
</style>
<g>
	<path class="st0" d="M663.6,206.1H562c-16,0-29-13-29-29v-35.4c0-44,35.8-79.8,79.8-79.8s79.8,35.8,79.8,79.8v35.4
		C692.6,193.2,679.6,206.1,663.6,206.1L663.6,206.1z"/>
	<path class="st0" d="M663.6,738H562c-16,0-29-13-29-29V529.6c0-16,13-29,29-29h101.6c16,0,29,13,29,29V709
		C692.6,725,679.6,738,663.6,738L663.6,738z"/>
</g>
<g>
	<path class="st1" d="M238.1,206.1H136.5c-16,0-29-13-29-29v-35.4c0-44,35.8-79.8,79.8-79.8S267,97.8,267,141.8v35.4
		C267,193.2,254.1,206.1,238.1,206.1z"/>
	<path class="st1" d="M238.1,738H136.5c-16,0-29-13-29-29V529.6c0-16,13-29,29-29h101.6c16,0,29,13,29,29V709
		C267,725,254.1,738,238.1,738z"/>
</g>
<path class="st0" d="M713,558.6H87.1c-37.3,0-67.7-30.4-67.7-67.7V215.8c0-37.3,30.4-67.7,67.7-67.7h625.8
	c37.3,0,67.7,30.4,67.7,67.7v275.1C780.7,528.2,750.3,558.6,713,558.6L713,558.6z"/>
<path class="st2" d="M709.7,153.7H405.2v399.4h304.5c36.3,0,65.9-29.6,65.9-65.9V219.5C775.5,183.2,746,153.7,709.7,153.7
	L709.7,153.7z"/>
<g>
	<path class="st2" d="M192.7,386c-3,8.8-23.1,8.2-24.9,0l-6.4-29.1L155,386c-1.9,8.3-22.3,8.7-24.9,0l-24.4-74.8
		c-2.6-7.6,16.1-13.2,18.3-5.6l18.7,62.9l9.7-41.5c1.5-6.7,16.9-6.7,18.4,0l9.7,41.5l18.7-62.9c2.2-7.5,20.7-2,18.3,5.6L192.7,386
		L192.7,386z"/>
	<path class="st2" d="M253.2,339.4h18.4c7.6,0,7.8,14.7,0,14.7h-18.4V375h32.9c7.6,0,7.9,16.7,0,16.7h-43.6c-4.1,0-8.3-2-8.3-5.9
		V308c0-3.9,4.1-5.9,8.3-5.9h43.6c7.9,0,7.6,16.7,0,16.7h-32.8L253.2,339.4L253.2,339.4L253.2,339.4z"/>
	<path class="st2" d="M318.3,391.7c-4.1,0-8.3-2-8.3-5.9v-77.9c0-4,4.8-5.8,9.5-5.8c4.8,0,9.5,1.7,9.5,5.8v67.2h27.9
		c7.4,0,7.4,16.7,0,16.7L318.3,391.7L318.3,391.7z"/>
	<path class="st2" d="M407.9,318.7c-7,0-11,3.9-11,12.3v32.5c0,8.3,4,12.3,11.2,12.3c9.8,0,10.4-7.5,10.8-12.3
		c0.4-4.5,4.5-5.8,9.4-5.8c6.6,0,9.7,1.7,9.7,9c0,32.4-60.2,37.9-60.2-3.3v-32.5c0-41.4,60.2-35.2,60.2-4.5c0,7.4-3,9-9.5,9
		c-5.1,0-9.3-1.4-9.5-5.8C418.7,326.6,418.3,318.7,407.9,318.7L407.9,318.7z"/>
	<path class="st2" d="M456.4,363.5V331c0-21.1,13.1-28.9,30.1-28.9c17,0,30.2,7.9,30.2,28.9v32.5c0,21.1-13.3,28.9-30.2,28.9
		C469.5,392.4,456.4,384.5,456.4,363.5L456.4,363.5z M497.5,331c0-8.4-4.1-12.3-11-12.3c-6.9,0-10.9,3.8-10.9,12.3v32.5
		c0,8.4,4,12.3,10.9,12.3c6.9,0,11-3.8,11-12.3V331z"/>
	<path class="st2" d="M581.8,359.9c-2.8,4.6-9.8,4.9-12.4,0l-11.6-21.3v47.1c0,7.9-19.2,7.9-19.2,0v-74.2c0-7,4.8-9.5,9.5-9.5
		c6.9,0,9.8,0.7,14.8,9.5l12.7,22.1l12.6-22.1c5-8.8,8-9.5,14.8-9.5c4.9,0,9.5,2.6,9.5,9.5v74.2c0,7.9-19.2,7.9-19.2,0v-46
		L581.8,359.9L581.8,359.9z"/>
	<path class="st2" d="M654.8,339.4h18.4c7.6,0,7.8,14.7,0,14.7h-18.4V375h32.8c7.6,0,7.9,16.7,0,16.7H644c-4.1,0-8.3-2-8.3-5.9V308
		c0-3.9,4.1-5.9,8.3-5.9h43.6c7.9,0,7.6,16.7,0,16.7h-32.8V339.4L654.8,339.4z"/>
</g>
<g>
	<path class="st3" d="M428.2,357.7c-4.9,0-9,1.2-9.4,5.8c-0.4,4.8-1,12.3-10.8,12.3c-3.3,0-6.1-0.9-8-2.8v19.1
		c17.1,3.5,37.9-6.2,37.9-25.2C438,359.4,434.8,357.7,428.2,357.7L428.2,357.7z M400,302.5v19c1.9-1.9,4.5-2.8,7.9-2.8
		c10.4,0,10.8,7.9,10.9,11c0.3,4.4,4.4,5.8,9.5,5.8c6.5,0,9.5-1.8,9.5-9C437.9,308.5,417.1,299,400,302.5L400,302.5z"/>
	<path class="st3" d="M456.4,363.5V331c0-21.1,13.1-28.9,30.1-28.9c17,0,30.2,7.9,30.2,28.9v32.5c0,21.1-13.3,28.9-30.2,28.9
		C469.5,392.4,456.4,384.5,456.4,363.5L456.4,363.5z M497.5,331c0-8.4-4.1-12.3-11-12.3c-6.9,0-10.9,3.8-10.9,12.3v32.5
		c0,8.4,4,12.3,10.9,12.3c6.9,0,11-3.8,11-12.3V331z"/>
	<path class="st3" d="M581.8,359.9c-2.8,4.6-9.8,4.9-12.4,0l-11.6-21.3v47.1c0,7.9-19.2,7.9-19.2,0v-74.2c0-7,4.8-9.5,9.5-9.5
		c6.9,0,9.8,0.7,14.8,9.5l12.7,22.1l12.6-22.1c5-8.8,8-9.5,14.8-9.5c4.9,0,9.5,2.6,9.5,9.5v74.2c0,7.9-19.2,7.9-19.2,0v-46
		L581.8,359.9L581.8,359.9z"/>
	<path class="st3" d="M654.8,339.4h18.4c7.6,0,7.8,14.7,0,14.7h-18.4V375h32.8c7.6,0,7.9,16.7,0,16.7H644c-4.1,0-8.3-2-8.3-5.9V308
		c0-3.9,4.1-5.9,8.3-5.9h43.6c7.9,0,7.6,16.7,0,16.7h-32.8V339.4L654.8,339.4z"/>
</g>
</svg>
