<?xml version="1.0" encoding="UTF-8"?>
<svg id="Layer_1" xmlns="http://www.w3.org/2000/svg" version="1.1" xmlns:xlink="http://www.w3.org/1999/xlink" viewBox="0 0 800 800">
  <!-- Generator: Adobe Illustrator 29.3.1, SVG Export Plug-In . SVG Version: 2.1.0 Build 151)  -->
  <defs>
    <style>
      .st0, .st1 {
        fill: #fff;
      }

      .st0, .st2 {
        stroke: #000;
        stroke-miterlimit: 10;
        stroke-width: 10px;
      }

      .st3, .st2 {
        fill: #9a7cf8;
      }
    </style>
  </defs>
  <g>
    <path class="st2" d="M668.3,202.7h-103.4c-16.3,0-29.5-13.2-29.5-29.5v-36c0-44.8,36.4-81.2,81.2-81.2s81.2,36.4,81.2,81.2v36c0,16.3-13.2,29.5-29.5,29.5h0Z"/>
    <path class="st2" d="M668.3,744.1h-103.4c-16.3,0-29.5-13.2-29.5-29.5v-182.6c0-16.3,13.2-29.5,29.5-29.5h103.4c16.3,0,29.5,13.2,29.5,29.5v182.6c0,16.3-13.2,29.5-29.5,29.5h0Z"/>
  </g>
  <g>
    <path class="st0" d="M235.1,202.7h-103.4c-16.3,0-29.5-13.2-29.5-29.5v-36c0-44.8,36.4-81.2,81.2-81.2s81.2,36.4,81.2,81.2v36c0,16.3-13.2,29.5-29.5,29.5Z"/>
    <path class="st0" d="M235.1,744.1h-103.4c-16.3,0-29.5-13.2-29.5-29.5v-182.6c0-16.3,13.2-29.5,29.5-29.5h103.4c16.3,0,29.5,13.2,29.5,29.5v182.6c0,16.3-13.2,29.5-29.5,29.5Z"/>
  </g>
  <path class="st2" d="M718.6,561.5H81.4c-38,0-68.9-30.9-68.9-68.9V212.5c0-38,30.9-68.9,68.9-68.9h637.1c38,0,68.9,30.9,68.9,68.9v280.1c0,38-30.8,68.9-68.8,68.9h0Z"/>
  <path class="st1" d="M715.2,149.3h-310v406.6h310c37,0,67.1-30.1,67.1-67.1V216.3c0-37-30.1-67-67.1-67h0Z"/>
  <g>
    <path class="st1" d="M188.9,385.8c-3.1,9-23.5,8.3-25.4,0l-6.5-29.6-6.5,29.6c-1.9,8.4-22.7,8.9-25.4,0l-24.8-76.1c-2.6-7.7,16.4-13.4,18.6-5.7l19,64,9.9-42.2c1.5-6.8,17.2-6.8,18.7,0l9.9,42.2,19-64c2.2-7.6,21.1-2,18.6,5.7l-25.1,76.1h0Z"/>
    <path class="st1" d="M250.5,338.4h18.7c7.7,0,7.9,15,0,15h-18.7v21.2h33.5c7.7,0,8,17,0,17h-44.4c-4.2,0-8.5-2-8.5-6v-79.2c0-4,4.2-6,8.5-6h44.4c8,0,7.7,17,0,17h-33.4v21h-.1Z"/>
    <path class="st1" d="M316.8,391.6c-4.2,0-8.5-2-8.5-6v-79.3c0-4.1,4.9-5.9,9.7-5.9s9.7,1.7,9.7,5.9v68.4h28.4c7.5,0,7.5,17,0,17h-39.3Z"/>
    <path class="st1" d="M408,317.3c-7.1,0-11.2,4-11.2,12.5v33.1c0,8.5,4.1,12.5,11.4,12.5s10.6-7.6,11-12.5c.4-4.6,4.6-5.9,9.6-5.9s9.9,1.7,9.9,9.2c0,33-61.3,38.6-61.3-3.4v-33.1c0-42.1,61.3-35.8,61.3-4.6s-3.1,9.2-9.7,9.2-9.5-1.4-9.7-5.9c-.3-3.1-.7-11.1-11.3-11.1h0Z"/>
    <path class="st1" d="M457.4,362.9v-33.1c0-21.5,13.3-29.4,30.6-29.4s30.7,8,30.7,29.4v33.1c0,21.5-13.5,29.4-30.7,29.4s-30.6-8-30.6-29.4h0ZM499.2,329.8c0-8.6-4.2-12.5-11.2-12.5s-11.1,3.9-11.1,12.5v33.1c0,8.6,4.1,12.5,11.1,12.5s11.2-3.9,11.2-12.5v-33.1Z"/>
    <path class="st1" d="M585,359.2c-2.8,4.7-10,5-12.6,0l-11.8-21.7v48c0,8-19.5,8-19.5,0v-75.5c0-7.1,4.9-9.7,9.7-9.7,7,0,10,.7,15.1,9.7l12.9,22.5,12.8-22.5c5.1-9,8.1-9.7,15.1-9.7s9.7,2.6,9.7,9.7v75.5c0,8-19.5,8-19.5,0v-46.8l-11.9,20.5h0Z"/>
    <path class="st1" d="M659.4,338.4h18.7c7.7,0,7.9,15,0,15h-18.7v21.2h33.4c7.7,0,8,17,0,17h-44.4c-4.2,0-8.5-2-8.5-6v-79.2c0-4,4.2-6,8.5-6h44.4c8,0,7.7,17,0,17h-33.4v21h0Z"/>
  </g>
  <g>
    <path class="st3" d="M428.7,357c-5,0-9.2,1.2-9.6,5.9-.4,4.9-1,12.5-11,12.5s-6.2-.9-8.1-2.8v19.4c17.4,3.6,38.6-6.3,38.6-25.7s-3.2-9.3-9.9-9.3h0ZM400,300.8v19.3c1.9-1.9,4.6-2.8,8-2.8,10.6,0,11,8,11.1,11.2.3,4.5,4.5,5.9,9.7,5.9s9.7-1.8,9.7-9.2c0-18.3-21.1-28-38.5-24.4h0Z"/>
    <path class="st3" d="M457.4,362.9v-33.1c0-21.5,13.3-29.4,30.6-29.4s30.7,8,30.7,29.4v33.1c0,21.5-13.5,29.4-30.7,29.4s-30.6-8-30.6-29.4h0ZM499.2,329.8c0-8.6-4.2-12.5-11.2-12.5s-11.1,3.9-11.1,12.5v33.1c0,8.6,4.1,12.5,11.1,12.5s11.2-3.9,11.2-12.5v-33.1Z"/>
    <path class="st3" d="M585,359.2c-2.8,4.7-10,5-12.6,0l-11.8-21.7v48c0,8-19.5,8-19.5,0v-75.5c0-7.1,4.9-9.7,9.7-9.7,7,0,10,.7,15.1,9.7l12.9,22.5,12.8-22.5c5.1-9,8.1-9.7,15.1-9.7s9.7,2.6,9.7,9.7v75.5c0,8-19.5,8-19.5,0v-46.8l-11.9,20.5h0Z"/>
    <path class="st3" d="M659.4,338.4h18.7c7.7,0,7.9,15,0,15h-18.7v21.2h33.4c7.7,0,8,17,0,17h-44.4c-4.2,0-8.5-2-8.5-6v-79.2c0-4,4.2-6,8.5-6h44.4c8,0,7.7,17,0,17h-33.4v21h0Z"/>
  </g>
</svg>