<?xml version="1.0" encoding="utf-8"?>
<!-- Generator: Adobe Illustrator 28.3.0, SVG Export Plug-In . SVG Version: 6.00 Build 0)  -->
<svg version="1.1" id="Layer_1" xmlns="http://www.w3.org/2000/svg" xmlns:xlink="http://www.w3.org/1999/xlink" x="0px" y="0px"
	 viewBox="0 0 800 800" style="enable-background:new 0 0 800 800;" xml:space="preserve">
<style type="text/css">
	.st0{fill:#ED1C24;stroke:#000000;stroke-width:10;stroke-miterlimit:10;}
	.st1{fill:#FFFFFF;stroke:#000000;stroke-width:10;stroke-miterlimit:10;}
	.st2{fill:#FFFFFF;}
	.st3{fill:#ED1C24;}
</style>
<g>
	<path class="st0" d="M668.3,202.7H564.9c-16.3,0-29.5-13.2-29.5-29.5v-36c0-44.8,36.4-81.2,81.2-81.2c44.8,0,81.2,36.4,81.2,81.2
		v36C697.8,189.5,684.6,202.7,668.3,202.7L668.3,202.7z"/>
	<path class="st0" d="M668.3,744.1H564.9c-16.3,0-29.5-13.2-29.5-29.5V532c0-16.3,13.2-29.5,29.5-29.5h103.4
		c16.3,0,29.5,13.2,29.5,29.5v182.6C697.8,730.9,684.6,744.1,668.3,744.1L668.3,744.1z"/>
</g>
<g>
	<path class="st1" d="M235.1,202.7H131.7c-16.3,0-29.5-13.2-29.5-29.5v-36c0-44.8,36.4-81.2,81.2-81.2s81.2,36.4,81.2,81.2v36
		C264.6,189.5,251.4,202.7,235.1,202.7z"/>
	<path class="st1" d="M235.1,744.1H131.7c-16.3,0-29.5-13.2-29.5-29.5V532c0-16.3,13.2-29.5,29.5-29.5h103.4
		c16.3,0,29.5,13.2,29.5,29.5v182.6C264.6,730.9,251.4,744.1,235.1,744.1z"/>
</g>
<path class="st0" d="M718.6,561.5H81.4c-38,0-68.9-30.9-68.9-68.9V212.5c0-38,30.9-68.9,68.9-68.9h637.1c38,0,68.9,30.9,68.9,68.9
	v280.1C787.5,530.6,756.6,561.5,718.6,561.5L718.6,561.5z"/>
<path class="st2" d="M715.2,149.3h-310v406.6h310c37,0,67.1-30.1,67.1-67.1V216.3C782.2,179.3,752.2,149.3,715.2,149.3L715.2,149.3z
	"/>
<g>
	<path class="st2" d="M188.9,385.8c-3.1,9-23.5,8.3-25.4,0l-6.5-29.6l-6.5,29.6c-1.9,8.4-22.7,8.9-25.4,0l-24.8-76.1
		c-2.6-7.7,16.4-13.4,18.6-5.7l19,64l9.9-42.2c1.5-6.8,17.2-6.8,18.7,0l9.9,42.2l19-64c2.2-7.6,21.1-2,18.6,5.7L188.9,385.8
		L188.9,385.8z"/>
	<path class="st2" d="M250.5,338.4h18.7c7.7,0,7.9,15,0,15h-18.7v21.2H284c7.7,0,8,17,0,17h-44.4c-4.2,0-8.5-2-8.5-6v-79.2
		c0-4,4.2-6,8.5-6H284c8,0,7.7,17,0,17h-33.4V338.4L250.5,338.4z"/>
	<path class="st2" d="M316.8,391.6c-4.2,0-8.5-2-8.5-6v-79.3c0-4.1,4.9-5.9,9.7-5.9c4.9,0,9.7,1.7,9.7,5.9v68.4h28.4
		c7.5,0,7.5,17,0,17L316.8,391.6L316.8,391.6z"/>
	<path class="st2" d="M408,317.3c-7.1,0-11.2,4-11.2,12.5v33.1c0,8.5,4.1,12.5,11.4,12.5c10,0,10.6-7.6,11-12.5
		c0.4-4.6,4.6-5.9,9.6-5.9c6.7,0,9.9,1.7,9.9,9.2c0,33-61.3,38.6-61.3-3.4v-33.1c0-42.1,61.3-35.8,61.3-4.6c0,7.5-3.1,9.2-9.7,9.2
		c-5.2,0-9.5-1.4-9.7-5.9C419,325.3,418.6,317.3,408,317.3L408,317.3z"/>
	<path class="st2" d="M457.4,362.9v-33.1c0-21.5,13.3-29.4,30.6-29.4s30.7,8,30.7,29.4v33.1c0,21.5-13.5,29.4-30.7,29.4
		C470.7,392.3,457.4,384.3,457.4,362.9L457.4,362.9z M499.2,329.8c0-8.6-4.2-12.5-11.2-12.5c-7,0-11.1,3.9-11.1,12.5v33.1
		c0,8.6,4.1,12.5,11.1,12.5c7,0,11.2-3.9,11.2-12.5V329.8z"/>
	<path class="st2" d="M585,359.2c-2.8,4.7-10,5-12.6,0l-11.8-21.7v48c0,8-19.5,8-19.5,0v-75.5c0-7.1,4.9-9.7,9.7-9.7
		c7,0,10,0.7,15.1,9.7l12.9,22.5l12.8-22.5c5.1-9,8.1-9.7,15.1-9.7c5,0,9.7,2.6,9.7,9.7v75.5c0,8-19.5,8-19.5,0v-46.8L585,359.2
		L585,359.2z"/>
	<path class="st2" d="M659.4,338.4h18.7c7.7,0,7.9,15,0,15h-18.7v21.2h33.4c7.7,0,8,17,0,17h-44.4c-4.2,0-8.5-2-8.5-6v-79.2
		c0-4,4.2-6,8.5-6h44.4c8,0,7.7,17,0,17h-33.4V338.4L659.4,338.4z"/>
</g>
<g>
	<path class="st3" d="M428.7,357c-5,0-9.2,1.2-9.6,5.9c-0.4,4.9-1,12.5-11,12.5c-3.4,0-6.2-0.9-8.1-2.8v19.4
		c17.4,3.6,38.6-6.3,38.6-25.7C438.6,358.7,435.4,357,428.7,357L428.7,357z M400,300.8v19.3c1.9-1.9,4.6-2.8,8-2.8
		c10.6,0,11,8,11.1,11.2c0.3,4.5,4.5,5.9,9.7,5.9c6.6,0,9.7-1.8,9.7-9.2C438.5,306.9,417.4,297.2,400,300.8L400,300.8z"/>
	<path class="st3" d="M457.4,362.9v-33.1c0-21.5,13.3-29.4,30.6-29.4s30.7,8,30.7,29.4v33.1c0,21.5-13.5,29.4-30.7,29.4
		C470.7,392.3,457.4,384.3,457.4,362.9L457.4,362.9z M499.2,329.8c0-8.6-4.2-12.5-11.2-12.5c-7,0-11.1,3.9-11.1,12.5v33.1
		c0,8.6,4.1,12.5,11.1,12.5c7,0,11.2-3.9,11.2-12.5V329.8z"/>
	<path class="st3" d="M585,359.2c-2.8,4.7-10,5-12.6,0l-11.8-21.7v48c0,8-19.5,8-19.5,0v-75.5c0-7.1,4.9-9.7,9.7-9.7
		c7,0,10,0.7,15.1,9.7l12.9,22.5l12.8-22.5c5.1-9,8.1-9.7,15.1-9.7c5,0,9.7,2.6,9.7,9.7v75.5c0,8-19.5,8-19.5,0v-46.8L585,359.2
		L585,359.2z"/>
	<path class="st3" d="M659.4,338.4h18.7c7.7,0,7.9,15,0,15h-18.7v21.2h33.4c7.7,0,8,17,0,17h-44.4c-4.2,0-8.5-2-8.5-6v-79.2
		c0-4,4.2-6,8.5-6h44.4c8,0,7.7,17,0,17h-33.4V338.4L659.4,338.4z"/>
</g>
</svg>
