<?xml version="1.0" encoding="utf-8"?>
<!-- Generator: Adobe Illustrator 28.3.0, SVG Export Plug-In . SVG Version: 6.00 Build 0)  -->
<svg version="1.1" id="Layer_1" xmlns="http://www.w3.org/2000/svg" xmlns:xlink="http://www.w3.org/1999/xlink" x="0px" y="0px"
	 viewBox="0 0 800 800" style="enable-background:new 0 0 800 800;" xml:space="preserve">
<style type="text/css">
	.st0{fill:#ECF0F1;stroke:#333333;stroke-width:6;stroke-miterlimit:10;}
	.st1{fill:#FFFFFF;stroke:#333333;stroke-width:6;stroke-miterlimit:10;}
	.st2{fill:#ED1C24;}
	.st3{fill:#ED1C24;stroke:#333333;stroke-width:6;stroke-miterlimit:10;}
	.st4{fill:#FFFFFF;}
	.st5{font-family:'EndgameDEMO-Regular';}
	.st6{font-size:72px;}
</style>
<g>
	<path class="st0" d="M454.6,668.7c-5,0-9.1-4.1-9.1-9.1V559.4c0-5,4.1-9.1,9.1-9.1s9.1,4.1,9.1,9.1v100.2
		C463.8,664.6,459.7,668.7,454.6,668.7"/>
	<path class="st0" d="M299.8,668.7c-5,0-9.1-4.1-9.1-9.1v-54.6c0-5,4.1-9.1,9.1-9.1s9.1,4.1,9.1,9.1v54.6
		C308.9,664.6,304.8,668.7,299.8,668.7"/>
</g>
<path class="st1" d="M318,568.5c32.6-33.1,97-96.5,113.3-114.4c60.7-66.9,32.4-168-52.4-168c-39.6,0-66.6,21.4-79.1,53.1
	c-12.5-31.6-39.6-53.1-79.1-53.1c-84.8,0-113,101-52.4,168c16.2,17.9,80.6,81.2,113.3,114.4H318z"/>
<path class="st2" d="M418.2,358.2c-3.5,0-6.8-2-8.3-5.4c-6.2-14-18-21.1-35.1-21.1c-5,0-9.1-4.1-9.1-9.1c0-5,4.1-9.1,9.1-9.1
	c24.3,0,42.7,11.3,51.8,31.9c2,4.6,0,10-4.6,12C420.7,358,419.4,358.2,418.2,358.2"/>
<polygon class="st1" points="427.3,559.4 482,559.4 472.9,523 436.4,523 "/>
<polygon class="st3" points="272.5,604.9 327.1,604.9 318,568.5 281.6,568.5 "/>
<path class="st3" d="M353.6,131.3c50.5,0,85.1,30.2,101.1,72.9c16-42.7,50.5-72.9,101.1-72.9c108.3,0,144.4,136.3,66.9,226.7
	c-22.3,26-112,124.5-149.8,165h-36.4c-9.3-10-20.1-23.7-34.2-38.9c12.8-13.3,23.7-24,29.1-30c60.7-66.9,32.4-168-52.4-168
	c-39.6,0-66.6,21.4-79.1,53c-9-22.8-25.6-40.1-48.9-48.1C229.4,212.5,270,131.3,353.6,131.3"/>
<path class="st1" d="M645.9,568.5c-1.4,0-2.8-0.3-4.1-1c-4.5-2.3-6.3-7.7-4.1-12.2l5-9.9c0.7-1.4,0.4-3.2-0.7-4.4l-2.5-2.5
	c-8.6-8.6-8.6-22.5,0-31.1c1.5-1.5,1.5-3.9,0-5.3l-2.5-2.5c-6.7-6.7-8.4-16.9-4.1-25.4l4.9-9.9c2.3-4.5,7.7-6.3,12.2-4.1
	c4.5,2.3,6.3,7.7,4.1,12.2l-5,9.9c-0.7,1.4-0.4,3.2,0.7,4.4l2.5,2.5c8.6,8.6,8.6,22.5,0,31.1c-1.5,1.5-1.5,3.9,0,5.3l2.5,2.5
	c6.7,6.7,8.4,16.9,4.1,25.4l-4.9,9.9C652.4,566.6,649.2,568.5,645.9,568.5"/>
<path class="st3" d="M184.2,249.7c-1.4,0-2.8-0.3-4.1-1c-4.5-2.3-6.3-7.7-4.1-12.2l5-9.9c0.7-1.4,0.4-3.2-0.7-4.4l-2.5-2.5
	c-8.6-8.6-8.6-22.5,0-31.1c1.5-1.5,1.5-3.9,0-5.3l-2.5-2.5c-6.7-6.7-8.4-16.9-4.1-25.4l5-9.9c2.3-4.5,7.7-6.3,12.2-4.1
	c4.5,2.3,6.3,7.7,4.1,12.2l-5,9.9c-0.7,1.4-0.4,3.2,0.7,4.3l2.6,2.6c8.6,8.6,8.6,22.5,0,31.1c-1.5,1.5-1.5,3.9,0,5.3l2.5,2.5
	c6.7,6.7,8.4,16.9,4.1,25.4l-4.9,9.9C190.8,247.9,187.5,249.7,184.2,249.7"/>
<path class="st4" d="M609.1,213.3c-3.4,0-6.7-2-8.3-5.3c-9.5-20.6-28-31.1-55.1-31.1c-5,0-9.1-4.1-9.1-9.1s4.1-9.1,9.1-9.1
	c43.4,0,62.9,22.7,71.6,41.7c2.1,4.6,0.1,10-4.5,12.1C611.6,213,610.4,213.3,609.1,213.3"/>
<text transform="matrix(1 0 0 1 168.7871 427.3219)" class="st2 st5 st6">PRISE</text>
<text transform="matrix(1 0 0 1 481.9672 286.1563)" class="st4 st5 st6">SUR</text>
</svg>
