<?xml version="1.0" encoding="iso-8859-1"?>
<!-- Uploaded to: SVG Repo, www.svgrepo.com, Generator: SVG Repo Mixer Tools -->
<svg height="800px" width="800px" version="1.1" id="Layer_1" xmlns="http://www.w3.org/2000/svg" xmlns:xlink="http://www.w3.org/1999/xlink" 
	 viewBox="0 0 512 512" xml:space="preserve">
<g>
	<g>
		<path style="fill:#ECF0F1;" d="M308.068,512c-4.79,0-8.678-3.888-8.678-8.678v-95.458c0-4.79,3.888-8.678,8.678-8.678
			c4.79,0,8.678,3.888,8.678,8.678v95.458C316.746,508.112,312.858,512,308.068,512"/>
		<path style="fill:#ECF0F1;" d="M160.542,512c-4.79,0-8.678-3.888-8.678-8.678v-52.068c0-4.79,3.888-8.678,8.678-8.678
			c4.79,0,8.678,3.888,8.678,8.678v52.068C169.22,508.112,165.333,512,160.542,512"/>
	</g>
	<path style="fill:#F0C419;" d="M177.898,416.542c31.076-31.562,92.472-91.908,107.919-108.961
		c57.795-63.783,30.876-160.056-49.89-160.056c-37.697,0-63.471,20.393-75.385,50.549c-11.915-30.156-37.688-50.549-75.385-50.549
		c-80.766,0-107.685,96.273-49.89,160.056c15.447,17.052,76.843,77.399,107.919,108.961H177.898z"/>
	<path style="fill:#C1991A;" d="M273.36,216.178c-3.324,0-6.5-1.927-7.94-5.163c-5.91-13.338-17.174-20.098-33.471-20.098
		c-4.79,0-8.678-3.888-8.678-8.678s3.888-8.678,8.678-8.678c23.118,0,40.648,10.804,49.343,30.416
		c1.944,4.382-0.035,9.511-4.417,11.455C275.729,215.935,274.532,216.178,273.36,216.178"/>
	<polygon style="fill:#B25E1F;" points="282.034,407.864 334.102,407.864 325.424,373.153 290.712,373.153 	"/>
	<polygon style="fill:#C1991A;" points="134.508,451.254 186.576,451.254 177.898,416.542 143.186,416.542 	"/>
	<path style="fill:#E57E25;" d="M211.746,0c48.163,0,81.096,28.741,96.325,69.424C323.292,28.741,356.225,0,404.388,0
		c103.207,0,137.607,129.9,63.748,215.969c-21.252,24.767-106.696,118.584-142.709,157.184h-34.712
		c-8.904-9.537-19.178-22.606-32.577-37.02c12.236-12.661,22.563-22.901,27.683-28.551c57.795-63.783,30.868-160.056-49.898-160.056
		c-37.688,0-63.462,20.393-75.377,50.54c-8.574-21.686-24.42-38.174-46.609-45.802C93.491,77.381,132.091,0,211.746,0"/>
	<path style="fill:#4482C3;" d="M490.296,416.542c-1.302,0-2.629-0.295-3.87-0.911c-4.287-2.152-6.031-7.359-3.888-11.646
		l4.721-9.45c0.694-1.38,0.425-3.046-0.668-4.148l-2.421-2.421c-8.166-8.166-8.166-21.461,0-29.627c1.406-1.406,1.406-3.679,0-5.085
		l-2.421-2.421c-6.396-6.387-7.966-16.106-3.922-24.186l4.712-9.442c2.152-4.278,7.359-6.04,11.646-3.888s6.031,7.359,3.888,11.646
		l-4.721,9.45c-0.703,1.38-0.425,3.046,0.668,4.148l2.421,2.421c8.166,8.166,8.166,21.461,0,29.627
		c-1.406,1.406-1.406,3.679,0,5.085l2.421,2.421c6.396,6.387,7.966,16.106,3.922,24.186l-4.712,9.442
		C496.544,414.781,493.481,416.542,490.296,416.542"/>
	<path style="fill:#C03A2B;" d="M50.382,112.814c-1.302,0-2.629-0.295-3.87-0.911c-4.287-2.152-6.031-7.359-3.888-11.646l4.721-9.45
		c0.694-1.38,0.425-3.046-0.668-4.148l-2.421-2.421c-8.166-8.166-8.166-21.461,0-29.627c1.406-1.406,1.406-3.679,0-5.085
		l-2.421-2.421c-6.387-6.378-7.966-16.098-3.931-24.177l4.721-9.45c2.152-4.296,7.368-6.031,11.646-3.888
		c4.287,2.152,6.031,7.368,3.888,11.646l-4.729,9.45c-0.694,1.38-0.425,3.046,0.668,4.139l2.43,2.43
		c8.166,8.166,8.166,21.461,0,29.627c-1.406,1.406-1.406,3.679,0,5.085l2.421,2.421c6.396,6.387,7.966,16.106,3.922,24.186
		l-4.712,9.442C56.63,111.052,53.566,112.814,50.382,112.814"/>
	<path style="fill:#B25E1F;" d="M455.221,78.102c-3.28,0-6.43-1.874-7.888-5.059c-9.051-19.673-26.702-29.653-52.484-29.653
		c-4.79,0-8.678-3.888-8.678-8.678s3.888-8.678,8.678-8.678c41.307,0,59.913,21.625,68.252,39.771
		c2.005,4.348,0.095,9.502-4.261,11.507C457.668,77.85,456.436,78.102,455.221,78.102"/>
</g>
</svg>