<?xml version="1.0" encoding="UTF-8"?>
<svg id="Layer_1" data-name="Layer 1" xmlns="http://www.w3.org/2000/svg" viewBox="0 0 800 800">
  <defs>
    <style>
      .cls-1 {
        fill: #ed1c24;
      }

      .cls-1, .cls-2 {
        stroke-width: 0px;
      }

      .cls-2 {
        fill: #fff;
      }
    </style>
  </defs>
  <g>
    <path class="cls-1" d="M676.96,196.32h-106.72c-16.84,0-30.49-13.65-30.49-30.49v-37.2c0-46.23,37.62-83.85,83.85-83.85s83.85,37.62,83.85,83.85v37.2c0,16.84-13.65,30.49-30.49,30.49Z"/>
    <path class="cls-1" d="M676.96,755.22h-106.72c-16.84,0-30.49-13.65-30.49-30.49v-188.45c0-16.84,13.65-30.49,30.49-30.49h106.72c16.84,0,30.49,13.65,30.49,30.49v188.45c0,16.84-13.65,30.49-30.49,30.49Z"/>
  </g>
  <g>
    <path class="cls-2" d="M229.76,196.32h-106.72c-16.84,0-30.49-13.65-30.49-30.49v-37.2c0-46.23,37.62-83.85,83.85-83.85s83.85,37.62,83.85,83.85v37.2c0,16.84-13.65,30.49-30.49,30.49Z"/>
    <path class="cls-2" d="M229.76,755.22h-106.72c-16.84,0-30.49-13.65-30.49-30.49v-188.45c0-16.84,13.65-30.49,30.49-30.49h106.72c16.84,0,30.49,13.65,30.49,30.49v188.45c0,16.84-13.65,30.49-30.49,30.49Z"/>
  </g>
  <path class="cls-1" d="M728.85,566.76H71.15c-39.23,0-71.15-31.92-71.15-71.15V206.48c0-39.23,31.92-71.15,71.15-71.15h657.71c39.23,0,71.15,31.92,71.15,71.15v289.13c0,39.23-31.92,71.15-71.15,71.15Z"/>
  <path class="cls-2" d="M728.85,135.34h-328.86v431.43h328.85c39.23,0,71.15-31.92,71.15-71.15V206.48c0-39.23-31.91-71.15-71.14-71.15Z"/>
  <g>
    <path class="cls-2" d="M182.08,385.35c-3.18,9.27-24.31,8.58-26.27,0l-6.7-30.52-6.7,30.52c-1.99,8.7-23.4,9.15-26.27,0l-25.63-78.56c-2.65-7.94,16.93-13.82,19.19-5.92l19.57,66.07,10.17-43.53c1.56-7.02,17.76-7.02,19.32,0l10.17,43.53,19.57-66.07c2.25-7.87,21.81-2.05,19.19,5.92l-25.63,78.56Z"/>
    <path class="cls-2" d="M245.71,336.41h19.32c7.94,0,8.19,15.45,0,15.45h-19.32v21.89h34.51c7.96,0,8.21,17.51,0,17.51h-45.85c-4.38,0-8.76-2.06-8.76-6.18v-81.78c0-4.12,4.38-6.18,8.76-6.18h45.85c8.22,0,7.96,17.51,0,17.51h-34.51v21.76Z"/>
    <path class="cls-2" d="M314.1,391.28c-4.38,0-8.76-2.06-8.76-6.18v-81.91c0-4.25,5.02-6.05,10.04-6.05s10.05,1.8,10.05,6.05v70.57h29.36c7.73,0,7.73,17.51,0,17.51h-40.69Z"/>
    <path class="cls-2" d="M408.24,314.65c-7.34,0-11.59,4.12-11.59,12.88v34.13c0,8.76,4.25,12.88,11.72,12.88,10.3,0,10.95-7.86,11.33-12.88.39-4.76,4.77-6.05,9.92-6.05,6.95,0,10.17,1.8,10.17,9.53,0,34.02-63.23,39.84-63.23-3.48v-34.13c0-43.41,63.23-36.96,63.23-4.76,0,7.73-3.22,9.53-10.04,9.53-5.41,0-9.79-1.42-10.05-6.05-.13-3.35-.52-11.59-11.46-11.59Z"/>
    <path class="cls-2" d="M459.25,361.66v-34.13c0-22.15,13.78-30.39,31.55-30.39s31.68,8.24,31.68,30.39v34.13c0,22.15-13.91,30.39-31.68,30.39-17.78,0-31.55-8.24-31.55-30.39ZM502.38,327.53c0-8.89-4.38-12.88-11.59-12.88s-11.46,3.99-11.46,12.88v34.13c0,8.88,4.25,12.88,11.46,12.88s11.59-3.99,11.59-12.88v-34.13Z"/>
    <path class="cls-2" d="M590.99,357.92c-2.88,4.87-10.3,5.19-13,0l-12.23-22.41v49.58c0,8.24-20.09,8.24-20.09,0v-77.91c0-7.34,5.02-10.04,10.05-10.04,7.21,0,10.3.77,15.58,10.04l13.27,23.18,13.26-23.18c5.28-9.27,8.37-10.04,15.58-10.04,5.15,0,10.04,2.7,10.04,10.04v77.91c0,8.24-20.09,8.24-20.09,0v-48.29l-12.36,21.12Z"/>
    <path class="cls-2" d="M667.75,336.41h19.32c7.94,0,8.19,15.45,0,15.45h-19.32v21.89h34.51c7.96,0,8.21,17.51,0,17.51h-45.85c-4.38,0-8.76-2.06-8.76-6.18v-81.78c0-4.12,4.38-6.18,8.76-6.18h45.85c8.21,0,7.96,17.51,0,17.51h-34.51v21.76Z"/>
  </g>
  <g>
    <path class="cls-1" d="M429.62,355.61c-5.14,0-9.53,1.28-9.92,6.06-.39,5.02-1.02,12.87-11.32,12.87-3.56,0-6.38-.93-8.38-2.89v20.02c18.01,3.7,39.8-6.55,39.8-26.53,0-7.73-3.23-9.53-10.18-9.53ZM400,297.55v19.94c1.95-1.91,4.74-2.85,8.23-2.85,10.96,0,11.34,8.25,11.46,11.59.26,4.63,4.63,6.06,10.04,6.06,6.83,0,10.06-1.81,10.06-9.53,0-18.91-21.81-28.93-39.8-25.21Z"/>
    <path class="cls-1" d="M459.25,361.66v-34.13c0-22.15,13.78-30.39,31.55-30.39s31.68,8.24,31.68,30.39v34.13c0,22.15-13.91,30.39-31.68,30.39-17.78,0-31.55-8.24-31.55-30.39ZM502.38,327.53c0-8.89-4.38-12.88-11.59-12.88s-11.46,3.99-11.46,12.88v34.13c0,8.88,4.25,12.88,11.46,12.88s11.59-3.99,11.59-12.88v-34.13Z"/>
    <path class="cls-1" d="M590.99,357.92c-2.88,4.87-10.3,5.19-13,0l-12.23-22.41v49.58c0,8.24-20.09,8.24-20.09,0v-77.91c0-7.34,5.02-10.04,10.05-10.04,7.21,0,10.3.77,15.58,10.04l13.27,23.18,13.26-23.18c5.28-9.27,8.37-10.04,15.58-10.04,5.15,0,10.04,2.7,10.04,10.04v77.91c0,8.24-20.09,8.24-20.09,0v-48.29l-12.36,21.12Z"/>
    <path class="cls-1" d="M667.75,336.41h19.32c7.94,0,8.19,15.45,0,15.45h-19.32v21.89h34.51c7.96,0,8.21,17.51,0,17.51h-45.85c-4.38,0-8.76-2.06-8.76-6.18v-81.78c0-4.12,4.38-6.18,8.76-6.18h45.85c8.21,0,7.96,17.51,0,17.51h-34.51v21.76Z"/>
  </g>
</svg>